<?xml version="1.0" encoding="UTF-8"?>
<!DOCTYPE svg PUBLIC "-//W3C//DTD SVG 1.1//EN" "http://www.w3.org/Graphics/SVG/1.1/DTD/svg11.dtd">
<svg xmlns="http://www.w3.org/2000/svg" version="1.1" width="301px" height="167px" style="shape-rendering:geometricPrecision; text-rendering:geometricPrecision; image-rendering:optimizeQuality; fill-rule:evenodd; clip-rule:evenodd" xmlns:xlink="http://www.w3.org/1999/xlink">
<g><path style="opacity:1" fill="#313131" d="M 94.5,58.5 C 105.594,64.8076 117.594,68.6409 130.5,70C 156.62,73.7484 181.62,70.0817 205.5,59C 211.75,55.752 216.25,50.9187 219,44.5C 223.952,61.3543 219.119,74.1876 204.5,83C 177.782,94.3389 150.116,97.3389 121.5,92C 110.448,89.7621 100.115,85.7621 90.5,80C 87.6007,77.2709 84.934,74.4376 82.5,71.5C 81.9101,70.234 81.4101,68.9007 81,67.5C 80.3333,59.8333 80.3333,52.1667 81,44.5C 83.6328,50.9662 88.1328,55.6329 94.5,58.5 Z"/></g>
<g><path style="opacity:1" fill="#f0f0f0" d="M 24.5,-0.5 C 116.5,-0.5 208.5,-0.5 300.5,-0.5C 300.5,55.1667 300.5,110.833 300.5,166.5C 226.5,166.5 152.5,166.5 78.5,166.5C 78.5,164.833 78.5,163.167 78.5,161.5C 79.8333,161.5 81.1667,161.5 82.5,161.5C 82.5,159.5 82.5,157.5 82.5,155.5C 81.1667,155.5 79.8333,155.5 78.5,155.5C 78.5,154.167 78.5,152.833 78.5,151.5C 76.8333,151.5 75.1667,151.5 73.5,151.5C 73.5,153.167 73.5,154.833 73.5,156.5C 74.8333,156.5 76.1667,156.5 77.5,156.5C 77.5,157.833 77.5,159.167 77.5,160.5C 76.1667,160.5 74.8333,160.5 73.5,160.5C 73.5,162.167 73.5,163.833 73.5,165.5C 71.8333,165.5 70.1667,165.5 68.5,165.5C 68.5,163.833 68.5,162.167 68.5,160.5C 69.8333,160.5 71.1667,160.5 72.5,160.5C 72.5,159.167 72.5,157.833 72.5,156.5C 71.1667,156.5 69.8333,156.5 68.5,156.5C 68.5,154.833 68.5,153.167 68.5,151.5C 66.8333,151.5 65.1667,151.5 63.5,151.5C 63.5,152.833 63.5,154.167 63.5,155.5C 61.8333,155.5 60.1667,155.5 58.5,155.5C 58.5,154.167 58.5,152.833 58.5,151.5C 56.8333,151.5 55.1667,151.5 53.5,151.5C 53.5,149.833 53.5,148.167 53.5,146.5C 55.1667,146.5 56.8333,146.5 58.5,146.5C 58.5,147.833 58.5,149.167 58.5,150.5C 60.1667,150.5 61.8333,150.5 63.5,150.5C 63.5,149.167 63.5,147.833 63.5,146.5C 65.1667,146.5 66.8333,146.5 68.5,146.5C 68.5,147.833 68.5,149.167 68.5,150.5C 69.8333,150.5 71.1667,150.5 72.5,150.5C 72.5,149.167 72.5,147.833 72.5,146.5C 74.1667,146.5 75.8333,146.5 77.5,146.5C 77.5,144.833 77.5,143.167 77.5,141.5C 76.1667,141.5 74.8333,141.5 73.5,141.5C 73.5,139.833 73.5,138.167 73.5,136.5C 75.1667,136.5 76.8333,136.5 78.5,136.5C 78.5,138.167 78.5,139.833 78.5,141.5C 79.8333,141.5 81.1667,141.5 82.5,141.5C 82.5,139.833 82.5,138.167 82.5,136.5C 91.6336,145.74 102.634,151.907 115.5,155C 142.862,160.676 169.862,159.343 196.5,151C 203.348,148.414 209.348,144.581 214.5,139.5C 216.774,137.287 218.274,134.621 219,131.5C 219.667,124.167 219.667,116.833 219,109.5C 213.413,118.393 205.58,124.56 195.5,128C 165.162,138 134.828,138 104.5,128C 94.4201,124.56 86.5867,118.393 81,109.5C 80.5004,116.158 80.3337,122.825 80.5,129.5C 79.4675,128.088 78.8008,126.422 78.5,124.5C 78.8234,117.187 78.8234,109.853 78.5,102.5C 79.5,102.5 80.5,102.5 81.5,102.5C 90.5966,113.393 102.263,120.227 116.5,123C 139.904,127.895 163.238,127.561 186.5,122C 198.578,119.381 208.744,113.548 217,104.5C 219.009,99.3904 219.843,94.0571 219.5,88.5C 219.333,84.8333 219.167,81.1667 219,77.5C 216.925,81.579 214.092,85.079 210.5,88C 188.142,100.507 164.142,105.507 138.5,103C 120.279,102.283 103.613,96.9495 88.5,87C 85.2203,84.2251 82.5537,81.0584 80.5,77.5C 78.6558,76.7961 78.1558,75.4628 79,73.5C 80.3024,72.9152 81.469,72.2485 82.5,71.5C 84.934,74.4376 87.6007,77.2709 90.5,80C 100.115,85.7621 110.448,89.7621 121.5,92C 150.116,97.3389 177.782,94.3389 204.5,83C 219.119,74.1876 223.952,61.3543 219,44.5C 216.25,50.9187 211.75,55.752 205.5,59C 181.62,70.0817 156.62,73.7484 130.5,70C 117.594,68.6409 105.594,64.8076 94.5,58.5C 96.7593,57.656 97.7593,55.9893 97.5,53.5C 95.8333,53.5 94.1667,53.5 92.5,53.5C 92.4326,52.0413 92.7659,50.7079 93.5,49.5C 110.841,58.4779 129.341,62.8112 149,62.5C 163.827,62.4178 178.327,60.2511 192.5,56C 201.616,53.2114 209.45,48.378 216,41.5C 220.658,34.8716 220.658,28.2049 216,21.5C 208.277,13.8856 199.111,8.71897 188.5,6C 159.498,-2.01798 130.831,-1.01798 102.5,9C 92.4032,12.5234 85.0698,19.0234 80.5,28.5C 79.5,28.5 78.5,28.5 77.5,28.5C 77.5,27.1667 77.5,25.8333 77.5,24.5C 76.1667,24.5 74.8333,24.5 73.5,24.5C 73.5,25.8333 73.5,27.1667 73.5,28.5C 71.8333,28.5 70.1667,28.5 68.5,28.5C 68.5,30.5 68.5,32.5 68.5,34.5C 69.8333,34.5 71.1667,34.5 72.5,34.5C 72.5,35.8333 72.5,37.1667 72.5,38.5C 71.1667,38.5 69.8333,38.5 68.5,38.5C 68.5,40.1667 68.5,41.8333 68.5,43.5C 69.8333,43.5 71.1667,43.5 72.5,43.5C 72.5,45.1667 72.5,46.8333 72.5,48.5C 71.1667,48.5 69.8333,48.5 68.5,48.5C 68.5,50.1667 68.5,51.8333 68.5,53.5C 66.8333,53.5 65.1667,53.5 63.5,53.5C 63.5,51.8333 63.5,50.1667 63.5,48.5C 61.8333,48.5 60.1667,48.5 58.5,48.5C 58.5,50.1667 58.5,51.8333 58.5,53.5C 56.8333,53.5 55.1667,53.5 53.5,53.5C 53.5,51.8333 53.5,50.1667 53.5,48.5C 51.8333,48.5 50.1667,48.5 48.5,48.5C 48.5,46.8333 48.5,45.1667 48.5,43.5C 46.8333,43.5 45.1667,43.5 43.5,43.5C 43.5,41.8333 43.5,40.1667 43.5,38.5C 41.8333,38.5 40.1667,38.5 38.5,38.5C 38.5,36.8333 38.5,35.1667 38.5,33.5C 36.8333,33.5 35.1667,33.5 33.5,33.5C 33.5,31.8333 33.5,30.1667 33.5,28.5C 32.1667,28.5 30.8333,28.5 29.5,28.5C 29.5,26.8333 29.5,25.1667 29.5,23.5C 30.8333,23.5 32.1667,23.5 33.5,23.5C 33.5,22.1667 33.5,20.8333 33.5,19.5C 35.1667,19.5 36.8333,19.5 38.5,19.5C 38.5,20.8333 38.5,22.1667 38.5,23.5C 40.1667,23.5 41.8333,23.5 43.5,23.5C 43.5,22.1667 43.5,20.8333 43.5,19.5C 45.1667,19.5 46.8333,19.5 48.5,19.5C 48.5,20.8333 48.5,22.1667 48.5,23.5C 50.1667,23.5 51.8333,23.5 53.5,23.5C 53.5,22.1667 53.5,20.8333 53.5,19.5C 55.1667,19.5 56.8333,19.5 58.5,19.5C 58.5,20.8333 58.5,22.1667 58.5,23.5C 60.1667,23.5 61.8333,23.5 63.5,23.5C 63.5,22.1667 63.5,20.8333 63.5,19.5C 65.1667,19.5 66.8333,19.5 68.5,19.5C 68.5,17.8333 68.5,16.1667 68.5,14.5C 66.8333,14.5 65.1667,14.5 63.5,14.5C 63.5,15.8333 63.5,17.1667 63.5,18.5C 61.8333,18.5 60.1667,18.5 58.5,18.5C 58.5,17.1667 58.5,15.8333 58.5,14.5C 56.8333,14.5 55.1667,14.5 53.5,14.5C 53.5,15.8333 53.5,17.1667 53.5,18.5C 51.8333,18.5 50.1667,18.5 48.5,18.5C 48.5,17.1667 48.5,15.8333 48.5,14.5C 46.8333,14.5 45.1667,14.5 43.5,14.5C 43.5,12.8333 43.5,11.1667 43.5,9.5C 41.8333,9.5 40.1667,9.5 38.5,9.5C 38.5,11.1667 38.5,12.8333 38.5,14.5C 36.8333,14.5 35.1667,14.5 33.5,14.5C 33.5,15.8333 33.5,17.1667 33.5,18.5C 32.1667,18.5 30.8333,18.5 29.5,18.5C 30.1667,14.5 28.5,12.8333 24.5,13.5C 24.5,12.1667 24.5,10.8333 24.5,9.5C 25.8333,9.5 27.1667,9.5 28.5,9.5C 28.5,7.83333 28.5,6.16667 28.5,4.5C 27.1667,4.5 25.8333,4.5 24.5,4.5C 24.5,2.83333 24.5,1.16667 24.5,-0.5 Z"/></g>
<g><path style="opacity:1" fill="#323232" d="M 93.5,49.5 C 84.8235,45.1399 80.4901,38.1399 80.5,28.5C 85.0698,19.0234 92.4032,12.5234 102.5,9C 130.831,-1.01798 159.498,-2.01798 188.5,6C 199.111,8.71897 208.277,13.8856 216,21.5C 220.658,28.2049 220.658,34.8716 216,41.5C 209.45,48.378 201.616,53.2114 192.5,56C 178.327,60.2511 163.827,62.4178 149,62.5C 129.341,62.8112 110.841,58.4779 93.5,49.5 Z"/></g>
<g><path style="opacity:1" fill="#313131" d="M 80.5,77.5 C 82.5537,81.0584 85.2203,84.2251 88.5,87C 103.613,96.9495 120.279,102.283 138.5,103C 164.142,105.507 188.142,100.507 210.5,88C 214.092,85.079 216.925,81.579 219,77.5C 219.167,81.1667 219.333,84.8333 219.5,88.5C 219.843,94.0571 219.009,99.3904 217,104.5C 208.744,113.548 198.578,119.381 186.5,122C 163.238,127.561 139.904,127.895 116.5,123C 102.263,120.227 90.5966,113.393 81.5,102.5C 80.5929,94.2079 80.2596,85.8746 80.5,77.5 Z"/></g>
<g><path style="opacity:1" fill="#f2f2f2" d="M -0.5,-0.5 C 7.83333,-0.5 16.1667,-0.5 24.5,-0.5C 24.5,1.16667 24.5,2.83333 24.5,4.5C 25.8333,4.5 27.1667,4.5 28.5,4.5C 28.5,6.16667 28.5,7.83333 28.5,9.5C 27.1667,9.5 25.8333,9.5 24.5,9.5C 24.5,10.8333 24.5,12.1667 24.5,13.5C 28.5,12.8333 30.1667,14.5 29.5,18.5C 30.8333,18.5 32.1667,18.5 33.5,18.5C 33.5,17.1667 33.5,15.8333 33.5,14.5C 35.1667,14.5 36.8333,14.5 38.5,14.5C 38.5,12.8333 38.5,11.1667 38.5,9.5C 40.1667,9.5 41.8333,9.5 43.5,9.5C 43.5,11.1667 43.5,12.8333 43.5,14.5C 45.1667,14.5 46.8333,14.5 48.5,14.5C 48.5,15.8333 48.5,17.1667 48.5,18.5C 50.1667,18.5 51.8333,18.5 53.5,18.5C 53.5,17.1667 53.5,15.8333 53.5,14.5C 55.1667,14.5 56.8333,14.5 58.5,14.5C 58.5,15.8333 58.5,17.1667 58.5,18.5C 60.1667,18.5 61.8333,18.5 63.5,18.5C 63.5,17.1667 63.5,15.8333 63.5,14.5C 65.1667,14.5 66.8333,14.5 68.5,14.5C 68.5,16.1667 68.5,17.8333 68.5,19.5C 66.8333,19.5 65.1667,19.5 63.5,19.5C 63.5,20.8333 63.5,22.1667 63.5,23.5C 61.8333,23.5 60.1667,23.5 58.5,23.5C 58.5,22.1667 58.5,20.8333 58.5,19.5C 56.8333,19.5 55.1667,19.5 53.5,19.5C 53.5,20.8333 53.5,22.1667 53.5,23.5C 51.8333,23.5 50.1667,23.5 48.5,23.5C 48.5,22.1667 48.5,20.8333 48.5,19.5C 46.8333,19.5 45.1667,19.5 43.5,19.5C 43.5,20.8333 43.5,22.1667 43.5,23.5C 41.8333,23.5 40.1667,23.5 38.5,23.5C 38.5,22.1667 38.5,20.8333 38.5,19.5C 36.8333,19.5 35.1667,19.5 33.5,19.5C 33.5,20.8333 33.5,22.1667 33.5,23.5C 32.1667,23.5 30.8333,23.5 29.5,23.5C 29.5,25.1667 29.5,26.8333 29.5,28.5C 30.8333,28.5 32.1667,28.5 33.5,28.5C 33.5,30.1667 33.5,31.8333 33.5,33.5C 35.1667,33.5 36.8333,33.5 38.5,33.5C 38.5,35.1667 38.5,36.8333 38.5,38.5C 40.1667,38.5 41.8333,38.5 43.5,38.5C 43.5,40.1667 43.5,41.8333 43.5,43.5C 45.1667,43.5 46.8333,43.5 48.5,43.5C 48.5,45.1667 48.5,46.8333 48.5,48.5C 50.1667,48.5 51.8333,48.5 53.5,48.5C 53.5,50.1667 53.5,51.8333 53.5,53.5C 55.1667,53.5 56.8333,53.5 58.5,53.5C 58.5,51.8333 58.5,50.1667 58.5,48.5C 60.1667,48.5 61.8333,48.5 63.5,48.5C 63.5,50.1667 63.5,51.8333 63.5,53.5C 65.1667,53.5 66.8333,53.5 68.5,53.5C 68.5,51.8333 68.5,50.1667 68.5,48.5C 69.8333,48.5 71.1667,48.5 72.5,48.5C 72.5,46.8333 72.5,45.1667 72.5,43.5C 71.1667,43.5 69.8333,43.5 68.5,43.5C 68.5,41.8333 68.5,40.1667 68.5,38.5C 69.8333,38.5 71.1667,38.5 72.5,38.5C 72.5,37.1667 72.5,35.8333 72.5,34.5C 71.1667,34.5 69.8333,34.5 68.5,34.5C 68.5,32.5 68.5,30.5 68.5,28.5C 70.1667,28.5 71.8333,28.5 73.5,28.5C 73.5,27.1667 73.5,25.8333 73.5,24.5C 74.8333,24.5 76.1667,24.5 77.5,24.5C 77.5,25.8333 77.5,27.1667 77.5,28.5C 78.5,28.5 79.5,28.5 80.5,28.5C 80.4901,38.1399 84.8235,45.1399 93.5,49.5C 92.7659,50.7079 92.4326,52.0413 92.5,53.5C 94.1667,53.5 95.8333,53.5 97.5,53.5C 97.7593,55.9893 96.7593,57.656 94.5,58.5C 88.1328,55.6329 83.6328,50.9662 81,44.5C 80.3333,52.1667 80.3333,59.8333 81,67.5C 81.4101,68.9007 81.9101,70.234 82.5,71.5C 81.469,72.2485 80.3024,72.9152 79,73.5C 78.1558,75.4628 78.6558,76.7961 80.5,77.5C 80.2596,85.8746 80.5929,94.2079 81.5,102.5C 80.5,102.5 79.5,102.5 78.5,102.5C 78.8234,109.853 78.8234,117.187 78.5,124.5C 78.8008,126.422 79.4675,128.088 80.5,129.5C 81.1667,131.833 81.8333,134.167 82.5,136.5C 82.5,138.167 82.5,139.833 82.5,141.5C 81.1667,141.5 79.8333,141.5 78.5,141.5C 78.5,139.833 78.5,138.167 78.5,136.5C 76.8333,136.5 75.1667,136.5 73.5,136.5C 73.5,138.167 73.5,139.833 73.5,141.5C 74.8333,141.5 76.1667,141.5 77.5,141.5C 77.5,143.167 77.5,144.833 77.5,146.5C 75.8333,146.5 74.1667,146.5 72.5,146.5C 72.5,147.833 72.5,149.167 72.5,150.5C 71.1667,150.5 69.8333,150.5 68.5,150.5C 68.5,149.167 68.5,147.833 68.5,146.5C 66.8333,146.5 65.1667,146.5 63.5,146.5C 63.5,147.833 63.5,149.167 63.5,150.5C 61.8333,150.5 60.1667,150.5 58.5,150.5C 58.5,149.167 58.5,147.833 58.5,146.5C 56.8333,146.5 55.1667,146.5 53.5,146.5C 53.5,148.167 53.5,149.833 53.5,151.5C 55.1667,151.5 56.8333,151.5 58.5,151.5C 58.5,152.833 58.5,154.167 58.5,155.5C 60.1667,155.5 61.8333,155.5 63.5,155.5C 63.5,154.167 63.5,152.833 63.5,151.5C 65.1667,151.5 66.8333,151.5 68.5,151.5C 68.5,153.167 68.5,154.833 68.5,156.5C 69.8333,156.5 71.1667,156.5 72.5,156.5C 72.5,157.833 72.5,159.167 72.5,160.5C 71.1667,160.5 69.8333,160.5 68.5,160.5C 68.5,162.167 68.5,163.833 68.5,165.5C 70.1667,165.5 71.8333,165.5 73.5,165.5C 73.5,163.833 73.5,162.167 73.5,160.5C 74.8333,160.5 76.1667,160.5 77.5,160.5C 77.5,159.167 77.5,157.833 77.5,156.5C 76.1667,156.5 74.8333,156.5 73.5,156.5C 73.5,154.833 73.5,153.167 73.5,151.5C 75.1667,151.5 76.8333,151.5 78.5,151.5C 78.5,152.833 78.5,154.167 78.5,155.5C 79.8333,155.5 81.1667,155.5 82.5,155.5C 82.5,157.5 82.5,159.5 82.5,161.5C 81.1667,161.5 79.8333,161.5 78.5,161.5C 78.5,163.167 78.5,164.833 78.5,166.5C 52.1667,166.5 25.8333,166.5 -0.5,166.5C -0.5,110.833 -0.5,55.1667 -0.5,-0.5 Z"/></g>
<g><path style="opacity:1" fill="#313131" d="M 82.5,136.5 C 81.8333,134.167 81.1667,131.833 80.5,129.5C 80.3337,122.825 80.5004,116.158 81,109.5C 86.5867,118.393 94.4201,124.56 104.5,128C 134.828,138 165.162,138 195.5,128C 205.58,124.56 213.413,118.393 219,109.5C 219.667,116.833 219.667,124.167 219,131.5C 218.274,134.621 216.774,137.287 214.5,139.5C 209.348,144.581 203.348,148.414 196.5,151C 169.862,159.343 142.862,160.676 115.5,155C 102.634,151.907 91.6336,145.74 82.5,136.5 Z"/></g>
</svg>
