<?xml version="1.0" standalone="no"?>
<!DOCTYPE svg PUBLIC "-//W3C//DTD SVG 20010904//EN"
 "http://www.w3.org/TR/2001/REC-SVG-20010904/DTD/svg10.dtd">
<svg version="1.0" xmlns="http://www.w3.org/2000/svg"
 width="100.000000pt" height="100.000000pt" viewBox="0 0 100.000000 100.000000"
 preserveAspectRatio="xMidYMid meet">
<metadata>
Created by potrace 1.14, written by Peter Selinger 2001-2017
</metadata>
<g transform="translate(0.000000,100.000000) scale(0.100000,-0.100000)"
fill="#000000" stroke="none">
<path d="M351 989 c-157 -31 -271 -102 -271 -169 0 -57 74 -113 200 -152 65
-20 95 -23 225 -22 135 1 158 3 232 28 264 86 230 244 -67 312 -43 10 -273 12
-319 3z"/>
<path d="M80 657 c0 -56 4 -70 26 -97 32 -38 99 -73 185 -96 82 -22 318 -25
399 -5 86 21 173 64 203 100 23 28 27 41 27 98 0 65 0 65 -22 51 -74 -46 -101
-59 -173 -80 -68 -19 -103 -23 -225 -22 -187 0 -279 24 -396 100 l-24 16 0
-65z"/>
<path d="M80 456 c0 -55 4 -69 26 -96 59 -69 191 -111 369 -116 189 -6 350 38
415 113 27 30 30 41 30 99 l0 65 -32 -25 c-78 -58 -223 -93 -388 -93 -165 0
-310 35 -387 93 l-33 25 0 -65z"/>
<path d="M885 295 c-37 -30 -125 -64 -212 -80 -67 -13 -287 -13 -348 -1 -74
15 -163 47 -197 71 -20 14 -39 25 -42 25 -4 0 -6 -27 -6 -59 0 -50 4 -65 27
-92 29 -34 116 -78 198 -99 74 -19 286 -21 370 -3 95 20 179 59 215 100 27 30
30 41 30 98 0 36 -1 65 -2 65 -2 -1 -16 -12 -33 -25z"/>
</g>
</svg>
